<svg width="408" height="40" viewBox="0 0 408 40" fill="none" xmlns="http://www.w3.org/2000/svg">
<g filter="url(#filter0_d_89_66)">
<path d="M6.7743 6.63829V9.90789H32.6975V6.63829H6.7743ZM17.7508 4.21529V31.6274H21.3999V4.21529H17.7508ZM16.875 20.8844C14.598 23.9496 10.1607 26.8689 5.89851 28.3578C6.68672 29.0584 7.79605 30.4304 8.32152 31.3062C12.7296 29.4379 17.1378 25.9931 19.8235 22.1397L16.875 20.8844ZM22.3925 21.0012L19.5316 22.2565C22.2465 26.0515 26.6838 29.5255 31.0335 31.3646C31.5882 30.4013 32.6975 29.0292 33.5149 28.2994C29.2528 26.8689 24.7279 23.9788 22.3925 21.0012ZM12.6421 18.3738H26.7714V20.1546H12.6421V18.3738ZM12.6421 14.1992H26.7714V15.9508H12.6421V14.1992ZM9.2265 11.5719V22.7819H30.3621V11.5719H9.2265ZM35.9379 7.0178V10.375H61.7736V7.0178H35.9379ZM46.9144 4.21529V8.68179H50.6511V4.21529H46.9144ZM42.7399 15.3961H54.9425V18.7825H42.7399V15.3961ZM39.2659 12.3893V21.7894H58.6791V12.3893H39.2659ZM53.8039 24.4459C55.6431 26.4018 57.8909 29.146 58.8543 30.8683L62.3282 29.1168C61.1897 27.3652 58.8251 24.7378 57.0152 22.8987L53.8039 24.4459ZM46.9728 20.5925V27.8615C46.9728 28.241 46.8269 28.3286 46.3306 28.3286C45.8635 28.3578 43.9952 28.3578 42.5063 28.2994C42.9734 29.2335 43.4697 30.6348 43.6156 31.6274C45.9803 31.6274 47.7318 31.5982 48.9871 31.1311C50.3008 30.6348 50.6511 29.7298 50.6511 27.9783V20.5925H46.9728ZM40.0541 22.9279C39.0616 24.7962 37.0473 27.1317 35.0913 28.5621C35.9087 29.0292 37.164 29.9342 37.923 30.6056C39.9957 28.9708 42.156 26.4018 43.6156 24.0664L40.0541 22.9279ZM70.7066 10.1414V13.2067H85.0987V10.1414H70.7066ZM71.4656 15.98V18.9285H84.4856V15.98H71.4656ZM70.3855 22.4024V25.2633H85.5949V22.4024H70.3855ZM76.2532 11.1048V23.9204H79.4936V11.1048H76.2532ZM80.4278 19.8626C81.2744 20.7676 82.2669 22.0521 82.734 22.8695L85.0695 21.5558C84.5732 20.7676 83.5222 19.5415 82.6465 18.6949L80.4278 19.8626ZM65.6854 5.35381V31.5982H69.2469V8.56502H86.5875V31.5982H90.3534V5.35381H65.6854ZM67.6121 26.9273V30.1385H88.3099V26.9273H67.6121ZM106.409 16.0092V18.7825H116.043V16.0092H106.409ZM103.753 20.5633V23.395H118.904V20.5633H103.753ZM105.096 6.49233V8.79856H109.737V6.49233H105.096ZM104.483 10.6961C105.417 11.1924 106.555 12.0098 107.139 12.5644L108.249 10.9004C107.694 10.3458 106.526 9.64516 105.592 9.20726L104.483 10.6961ZM102.731 13.0023C103.636 13.5862 104.716 14.4912 105.242 15.1042L106.526 13.5862C106.001 13.0315 104.891 12.1849 103.986 11.6303L102.731 13.0023ZM114.291 25.5552C115.634 27.1317 117.123 29.3211 117.765 30.7224L120.568 29.2043C119.896 27.7739 118.291 25.7012 116.948 24.1832L114.291 25.5552ZM108.803 6.49233V6.98861C107.869 11.6595 105.067 15.6881 101.593 17.498C102.206 18.0235 103.023 19.1036 103.403 19.8043C107.46 17.4396 110.496 13.1775 111.752 7.07619L109.854 6.40475L109.329 6.49233H108.803ZM114.291 6.28798V8.76937H118.67V6.28798H114.291ZM105.271 4.30287C104.395 7.45569 102.614 10.3458 100.337 12.1557C100.921 12.5644 102.001 13.4694 102.439 13.9657C104.804 11.8638 106.847 8.56502 107.957 4.88673L105.271 4.30287ZM117.532 6.28798V6.84264C117.094 8.59421 116.101 11.0172 114.992 12.4769C115.547 12.9148 116.452 13.8197 116.86 14.4328C118.349 12.6812 119.78 9.84951 120.656 7.22215L118.729 6.11282L118.174 6.28798H117.532ZM109.679 21.877V28.3286C109.679 28.6205 109.562 28.7081 109.241 28.7081C108.891 28.7081 107.694 28.7081 106.643 28.6789C107.052 29.4963 107.548 30.7516 107.694 31.6274C109.445 31.6274 110.73 31.5982 111.723 31.1311C112.715 30.664 112.978 29.8758 112.978 28.387V21.877H109.679ZM104.57 24.3291C103.899 26.1099 102.673 27.9199 101.359 29.146C102.089 29.5255 103.373 30.3137 103.986 30.81C105.3 29.4379 106.731 27.2192 107.577 25.1465L104.57 24.3291ZM113.153 4.74076L110.409 5.26623C111.839 11.893 114.408 17.0309 119.283 19.6583C119.721 18.8409 120.656 17.644 121.327 17.0601C116.89 14.9582 114.35 10.3166 113.153 4.74076ZM94.6739 5.47058V31.6565H97.71V8.59421H100.629V5.47058H94.6739ZM99.6659 5.47058V6.46314C99.3447 8.30229 98.6441 12.5352 98.0019 15.221C99.2864 17.4104 99.4615 19.3956 99.4615 20.8844C99.4615 21.7894 99.3739 22.5192 99.1112 22.7819C98.9652 22.9571 98.7317 23.0447 98.4982 23.0447C98.2646 23.0447 97.9727 23.0447 97.6516 23.0155C98.0895 23.8037 98.2354 25.0298 98.2354 25.8472C98.7901 25.8472 99.3156 25.818 99.7243 25.7596C100.308 25.672 100.775 25.4969 101.184 25.1465C101.943 24.5335 102.293 23.249 102.293 21.3223C102.293 19.5123 102.001 17.3229 100.629 14.9291C101.301 12.5936 102.089 9.17807 102.702 6.55072L100.6 5.35381L100.162 5.47058H99.6659ZM147.805 9.58677L144.915 7.74762C144.127 7.92278 143.192 7.95197 142.638 7.95197C141.003 7.95197 131.311 7.95197 129.121 7.95197C128.158 7.95197 126.523 7.8352 125.647 7.71843V11.8346C126.406 11.8054 127.779 11.7178 129.121 11.7178C131.311 11.7178 140.945 11.7178 142.725 11.7178C142.317 14.2284 141.236 17.5272 139.281 19.9794C136.916 22.9279 133.646 25.4677 127.837 26.8105L131.019 30.3137C136.244 28.6497 140.127 25.7304 142.754 22.2565C145.207 18.9869 146.491 14.462 147.163 11.6011C147.309 10.988 147.513 10.1414 147.805 9.58677ZM170.692 10.8421H166.897C167.043 11.6595 167.13 12.5644 167.13 13.2943C167.306 17.1185 167.422 23.9496 167.422 27.2192C167.422 27.8323 167.189 28.1242 166.634 28.1242C165.875 28.1242 164.474 28.0366 163.306 27.8907L163.511 31.2187C164.824 31.3062 166.634 31.3646 168.035 31.3646C169.758 31.3646 170.926 30.3137 170.896 28.7957C170.838 24.154 170.663 17.1185 170.546 13.2943C170.546 12.5061 170.575 11.5719 170.692 10.8421ZM156.621 14.8707V18.4906C157.438 18.4322 158.519 18.3738 159.365 18.3738C160.62 18.3738 173.29 18.3738 174.195 18.3738C174.808 18.3738 175.742 18.403 176.414 18.4322V14.8707C175.918 14.9582 174.779 15.0458 174.02 15.0458C172.881 15.0458 160.912 15.0458 159.278 15.0458C158.489 15.0458 157.322 14.9874 156.621 14.8707ZM155.366 26.2267L157.906 29.1168C161.993 26.9857 166.722 22.8695 168.24 20.1254L168.181 17.2937L166.284 17.2645C164.707 20.1254 160.066 24.0664 155.366 26.2267ZM182.895 15.4837V20.0962C184.004 20.0086 185.96 19.921 187.595 19.921C191.039 19.921 200.644 19.921 203.3 19.921C204.526 19.921 206.015 20.067 206.716 20.0962V15.4837C205.928 15.5421 204.643 15.6881 203.271 15.6881C200.673 15.6881 191.039 15.6881 187.595 15.6881C186.077 15.6881 183.975 15.5713 182.895 15.4837ZM215.941 6.6091V10.4042C216.787 10.3166 218.014 10.2874 218.977 10.2874C220.699 10.2874 228.523 10.2874 230.129 10.2874C231.209 10.2874 232.581 10.3458 233.34 10.4042V6.6091C232.552 6.72587 231.121 6.78426 230.187 6.78426C228.494 6.78426 220.816 6.78426 218.977 6.78426C217.984 6.78426 216.729 6.72587 215.941 6.6091ZM235.821 15.1042L233.223 13.4694C232.814 13.6738 232.026 13.7905 231.063 13.7905C229.078 13.7905 218.627 13.7905 216.642 13.7905C215.707 13.7905 214.481 13.703 213.226 13.5862V17.3813C214.452 17.2937 215.912 17.2645 216.642 17.2645C219.24 17.2645 229.253 17.2645 230.712 17.2645C230.216 18.8701 229.282 20.7092 227.735 22.2857C225.487 24.5919 222.013 26.4894 217.605 27.4236L220.524 30.7224C224.261 29.6422 227.998 27.6863 230.946 24.3875C233.106 21.9937 234.362 19.1328 235.267 16.3011C235.354 16.0092 235.617 15.4837 235.821 15.1042ZM253.913 6.98861L249.271 6.05444C249.154 7.0178 249.008 7.95197 248.6 9.41161C247.636 12.798 244.6 22.3732 243.024 26.1099L247.315 25.9639C248.57 22.9279 251.607 13.5278 252.687 10.2582C253.125 8.94453 253.533 7.86439 253.913 6.98861ZM259.138 16.4179L255.518 17.9359C257.591 20.7384 260.306 26.7813 261.62 30.3137L265.561 28.5621C264.218 25.3217 261.24 19.5707 259.138 16.4179ZM242.732 24.7962C241.798 24.8254 240.513 24.8546 239.521 24.8254L240.221 29.1168C241.126 29 242.236 28.854 242.965 28.7665C246.906 28.3578 256.949 27.3068 261.269 26.7522L260.423 23.0155C256.336 23.5701 246.79 24.6503 242.732 24.7962ZM297.326 5.61655H293.006C293.122 6.14202 293.239 7.4265 293.239 8.15632C293.239 9.93708 293.239 13.0607 293.239 14.0825C293.239 15.4545 293.239 24.6795 293.239 25.7888C293.21 26.5478 292.918 26.8105 292.159 26.8105C291.429 26.8105 290.174 26.723 288.919 26.4894L289.269 30.1093C290.758 30.2845 292.451 30.3429 294.027 30.3429C296.1 30.3429 297.063 29.2919 297.063 27.5987C297.063 25.1465 297.063 16.4471 297.063 14.0825C297.063 12.3893 297.063 9.90789 297.063 8.18551C297.063 7.45569 297.268 6.02524 297.326 5.61655ZM283.022 10.2874V14.1409C283.839 14.0533 284.978 14.0241 285.853 14.0241C287.751 14.0241 301.793 14.0241 303.895 14.0241C304.683 14.0241 305.821 14.0533 306.726 14.1409V10.3166C305.967 10.4334 304.683 10.4917 303.865 10.4917C301.793 10.4917 287.634 10.4917 285.853 10.4917C284.919 10.4917 283.897 10.4042 283.022 10.2874ZM290.466 18.1987L287.167 16.6222C285.97 19.1036 283.635 22.3148 281.679 24.1832L284.832 26.3435C286.437 24.5919 289.123 20.7676 290.466 18.1987ZM303.019 16.5347L299.837 18.257C301.238 20.067 303.311 23.5993 304.566 26.1099L308.011 24.2124C306.843 22.1105 304.508 18.403 303.019 16.5347ZM312.01 15.4837V20.0962C313.119 20.0086 315.075 19.921 316.71 19.921C320.155 19.921 329.759 19.921 332.416 19.921C333.642 19.921 335.131 20.067 335.832 20.0962V15.4837C335.043 15.5421 333.759 15.6881 332.387 15.6881C329.789 15.6881 320.155 15.6881 316.71 15.6881C315.192 15.6881 313.09 15.5713 312.01 15.4837ZM353.201 28.3578L355.653 30.3721C355.945 30.1677 356.296 29.8466 356.909 29.5255C360.207 27.8615 364.382 24.7087 366.805 21.5558L364.586 18.3154C362.601 21.1471 359.74 23.4534 357.347 24.4751C357.347 22.6943 357.347 11.5719 357.347 9.23646C357.347 7.92278 357.551 6.75507 357.551 6.69668H353.23C353.23 6.75507 353.435 7.89359 353.435 9.20726C353.435 11.5719 353.435 24.6795 353.435 26.2267C353.435 27.0149 353.347 27.8031 353.201 28.3578ZM339.685 27.9491L343.246 30.3137C345.757 28.095 347.567 25.2049 348.472 21.9353C349.231 18.9869 349.319 12.8272 349.319 9.35323C349.319 8.15632 349.523 6.84264 349.523 6.72587H345.232C345.407 7.45569 345.524 8.21471 345.524 9.41161C345.524 12.9148 345.494 18.4614 344.648 20.9428C343.86 23.4534 342.283 26.1391 339.685 27.9491ZM370.396 29H383.97V25.3801H374.716V19.6291H382.277V15.98H374.716V10.988H383.649V7.39731H370.396V29ZM386.926 29H401.405V25.3801H396.735C395.713 25.3801 394.282 25.5261 393.202 25.6428C397.143 21.7894 400.413 17.5856 400.413 13.6446C400.413 9.61596 397.669 7.0178 393.611 7.0178C390.662 7.0178 388.707 8.15632 386.721 10.2874L389.086 12.6228C390.195 11.3967 391.451 10.375 393.056 10.375C395.129 10.375 396.267 11.7178 396.267 13.8781C396.267 17.2061 392.823 21.2639 386.926 26.5478V29Z" fill="white"/>
</g>
<defs>
<filter id="filter0_d_89_66" x="0.0599947" y="0.0449286" width="407.184" height="39.1185" filterUnits="userSpaceOnUse" color-interpolation-filters="sRGB">
<feFlood flood-opacity="0" result="BackgroundImageFix"/>
<feColorMatrix in="SourceAlpha" type="matrix" values="0 0 0 0 0 0 0 0 0 0 0 0 0 0 0 0 0 0 127 0" result="hardAlpha"/>
<feOffset dy="1.66816"/>
<feGaussianBlur stdDeviation="2.91928"/>
<feComposite in2="hardAlpha" operator="out"/>
<feColorMatrix type="matrix" values="0 0 0 0 0 0 0 0 0 0.048 0 0 0 0 0.3 0 0 0 1 0"/>
<feBlend mode="normal" in2="BackgroundImageFix" result="effect1_dropShadow_89_66"/>
<feBlend mode="normal" in="SourceGraphic" in2="effect1_dropShadow_89_66" result="shape"/>
</filter>
</defs>
</svg>
