<svg width="207" height="39" viewBox="0 0 207 39" fill="none" xmlns="http://www.w3.org/2000/svg">
<g filter="url(#filter0_d_210_266)">
<path d="M8.8665 10.9982L10.5479 11.0225C11.0921 11.0063 11.5835 10.9007 12.0222 10.7057C12.4689 10.5027 12.8304 10.2062 13.1065 9.81631C13.3827 9.42642 13.5533 8.95531 13.6183 8.40297C13.6751 7.95622 13.6345 7.56633 13.4964 7.2333C13.3665 6.89215 13.1512 6.6241 12.8507 6.42916C12.5501 6.23422 12.1724 6.13268 11.7176 6.12456C11.2708 6.11644 10.8647 6.20173 10.4992 6.38042C10.1418 6.551 9.84122 6.79468 9.59754 7.11146C9.35386 7.42825 9.19141 7.80189 9.11018 8.23239L5.67429 8.25676C5.73927 7.20894 6.0723 6.3195 6.67338 5.58846C7.28258 4.85742 8.04205 4.30508 8.95179 3.93144C9.86153 3.5578 10.8078 3.37504 11.7907 3.38316C12.7979 3.39941 13.7157 3.59841 14.5442 3.98018C15.3728 4.35382 16.0226 4.91022 16.4937 5.64938C16.9648 6.38042 17.1638 7.2861 17.0907 8.36642C17.0501 9.1137 16.843 9.77164 16.4693 10.3402C16.0957 10.9007 15.6164 11.3677 15.0316 11.7414C14.4549 12.115 13.8254 12.3993 13.1431 12.5943C12.4689 12.7811 11.7947 12.8745 11.1205 12.8745L8.57409 12.8623L8.8665 10.9982ZM8.45225 13.6665L8.74466 11.851L10.9256 11.8632C11.616 11.8795 12.278 11.9769 12.9116 12.1556C13.5533 12.3343 14.1178 12.6024 14.6052 12.9598C15.1006 13.3091 15.4824 13.7639 15.7505 14.3244C16.0185 14.8849 16.1322 15.5509 16.0916 16.3226C16.0348 17.1998 15.8073 17.9755 15.4093 18.6497C15.0194 19.3239 14.5077 19.8844 13.8741 20.3311C13.2487 20.7779 12.5461 21.1109 11.7663 21.3302C10.9946 21.5495 10.2027 21.6551 9.39041 21.647C8.61876 21.6307 7.90397 21.5048 7.24603 21.2693C6.59622 21.0256 6.02763 20.6844 5.54027 20.2458C5.05291 19.8072 4.67927 19.2752 4.41934 18.6497C4.15942 18.0243 4.03351 17.3135 4.04164 16.5175L7.44097 16.5297C7.44097 16.9846 7.52626 17.3866 7.69684 17.7359C7.86741 18.0852 8.11516 18.3614 8.44006 18.5644C8.77309 18.7675 9.17516 18.8731 9.64628 18.8812C10.1743 18.8893 10.6575 18.7878 11.0962 18.5766C11.5348 18.3654 11.8922 18.0649 12.1684 17.675C12.4527 17.277 12.6273 16.814 12.6923 16.286C12.7654 15.7337 12.7207 15.2707 12.5583 14.897C12.4039 14.5153 12.1481 14.2229 11.7907 14.0198C11.4333 13.8086 10.9865 13.6949 10.4504 13.6786L8.45225 13.6665ZM28.166 3.65121L18.5162 22.9141H15.8479L25.4977 3.65121H28.166ZM39.7408 14.763L39.2656 17.5166H26.8501L27.0816 15.2138L36.1465 3.65121H39.0828L35.1718 8.84159L30.6028 14.7508L39.7408 14.763ZM39.7042 3.65121L36.6338 21.3911H33.2101L36.2927 3.65121H39.7042ZM87.6584 4.58428L84.8247 21.3911H81.5877L83.834 8.47785L79.7561 9.73346L80.2284 6.99184L87.2437 4.58428H87.6584ZM102.737 11.5305L102.3 14.4219C102.161 15.3434 101.939 16.2381 101.631 17.1059C101.332 17.966 100.925 18.7416 100.41 19.4328C99.8959 20.124 99.2585 20.6692 98.4982 21.0686C97.7379 21.4602 96.8279 21.6445 95.7681 21.6215C94.9617 21.6061 94.2744 21.4564 93.7061 21.1722C93.1455 20.8881 92.6847 20.5118 92.3238 20.0433C91.9705 19.5672 91.7018 19.0258 91.5174 18.4191C91.3408 17.8047 91.2371 17.1596 91.2064 16.4838C91.1834 15.8004 91.2141 15.1169 91.2986 14.4334L91.7248 11.5305C91.863 10.6166 92.0857 9.72962 92.3929 8.86951C92.7001 8.00939 93.111 7.23759 93.6255 6.5541C94.14 5.86294 94.7774 5.32536 95.5377 4.94138C96.3057 4.54972 97.2157 4.36541 98.2678 4.38845C99.0742 4.40381 99.7577 4.55356 100.318 4.83771C100.887 5.11418 101.347 5.48664 101.701 5.95509C102.062 6.42355 102.33 6.96112 102.507 7.56781C102.691 8.1745 102.795 8.81575 102.818 9.49155C102.849 10.1674 102.822 10.847 102.737 11.5305ZM99.0051 14.8711L99.5695 11.0582C99.6002 10.7817 99.631 10.4707 99.6617 10.1251C99.7001 9.77186 99.7078 9.41476 99.6847 9.05382C99.6694 8.69287 99.6079 8.35881 99.5004 8.05163C99.4006 7.73676 99.2355 7.48334 99.0051 7.29135C98.7747 7.09168 98.4598 6.98032 98.0605 6.95728C97.5075 6.93424 97.0468 7.05328 96.6781 7.31438C96.3172 7.56781 96.0254 7.90955 95.8027 8.33961C95.5876 8.76967 95.4225 9.22661 95.3073 9.71042C95.1921 10.1942 95.1 10.6512 95.0309 11.0812L94.4779 14.8826C94.4472 15.1591 94.4127 15.474 94.3743 15.8272C94.3435 16.1805 94.3359 16.5414 94.3512 16.9101C94.3743 17.2787 94.4357 17.6204 94.5355 17.9353C94.6354 18.2502 94.8005 18.5074 95.0309 18.7071C95.2613 18.9068 95.5761 19.0181 95.9755 19.0412C96.5284 19.0719 96.9892 18.9567 97.3578 18.6956C97.7264 18.4268 98.0182 18.0774 98.2333 17.6473C98.456 17.2096 98.6249 16.7449 98.7401 16.2535C98.8553 15.7543 98.9436 15.2935 99.0051 14.8711ZM103.774 19.8475C103.766 19.3253 103.939 18.8952 104.292 18.5573C104.653 18.2194 105.091 18.0505 105.606 18.0505C106.097 18.0428 106.52 18.1964 106.873 18.5113C107.234 18.8184 107.418 19.2255 107.426 19.7323C107.433 20.2545 107.257 20.6846 106.896 21.0225C106.543 21.3604 106.109 21.5293 105.594 21.5293C105.103 21.537 104.676 21.3873 104.316 21.0801C103.962 20.7652 103.782 20.3544 103.774 19.8475ZM105.421 10.344C105.414 9.82178 105.586 9.39172 105.94 9.05382C106.301 8.71591 106.738 8.54696 107.253 8.54696C107.744 8.53928 108.167 8.69287 108.52 9.00774C108.881 9.31492 109.065 9.72194 109.073 10.2288C109.081 10.751 108.904 11.1811 108.543 11.519C108.19 11.8569 107.756 12.0258 107.241 12.0258C106.75 12.0335 106.324 11.8838 105.963 11.5766C105.61 11.2617 105.429 10.8508 105.421 10.344ZM122.436 11.5305L121.998 14.4219C121.86 15.3434 121.637 16.2381 121.33 17.1059C121.03 17.966 120.623 18.7416 120.109 19.4328C119.594 20.124 118.957 20.6692 118.196 21.0686C117.436 21.4602 116.526 21.6445 115.466 21.6215C114.66 21.6061 113.973 21.4564 113.404 21.1722C112.844 20.8881 112.383 20.5118 112.022 20.0433C111.669 19.5672 111.4 19.0258 111.216 18.4191C111.039 17.8047 110.935 17.1596 110.905 16.4838C110.882 15.8004 110.912 15.1169 110.997 14.4334L111.423 11.5305C111.561 10.6166 111.784 9.72962 112.091 8.86951C112.398 8.00939 112.809 7.23759 113.324 6.5541C113.838 5.86294 114.476 5.32536 115.236 4.94138C116.004 4.54972 116.914 4.36541 117.966 4.38845C118.772 4.40381 119.456 4.55356 120.016 4.83771C120.585 5.11418 121.046 5.48664 121.399 5.95509C121.76 6.42355 122.029 6.96112 122.205 7.56781C122.389 8.1745 122.493 8.81575 122.516 9.49155C122.547 10.1674 122.52 10.847 122.436 11.5305ZM118.703 14.8711L119.268 11.0582C119.298 10.7817 119.329 10.4707 119.36 10.1251C119.398 9.77186 119.406 9.41476 119.383 9.05382C119.368 8.69287 119.306 8.35881 119.199 8.05163C119.099 7.73676 118.934 7.48334 118.703 7.29135C118.473 7.09168 118.158 6.98032 117.759 6.95728C117.206 6.93424 116.745 7.05328 116.376 7.31438C116.015 7.56781 115.724 7.90955 115.501 8.33961C115.286 8.76967 115.121 9.22661 115.006 9.71042C114.89 10.1942 114.798 10.6512 114.729 11.0812L114.176 14.8826C114.145 15.1591 114.111 15.474 114.072 15.8272C114.042 16.1805 114.034 16.5414 114.049 16.9101C114.072 17.2787 114.134 17.6204 114.234 17.9353C114.334 18.2502 114.499 18.5074 114.729 18.7071C114.959 18.9068 115.274 19.0181 115.674 19.0412C116.227 19.0719 116.687 18.9567 117.056 18.6956C117.425 18.4268 117.716 18.0774 117.931 17.6473C118.154 17.2096 118.323 16.7449 118.438 16.2535C118.554 15.7543 118.642 15.2935 118.703 14.8711ZM135.568 11.5305L135.13 14.4219C134.992 15.3434 134.769 16.2381 134.462 17.1059C134.162 17.966 133.755 18.7416 133.241 19.4328C132.726 20.124 132.089 20.6692 131.329 21.0686C130.568 21.4602 129.658 21.6445 128.598 21.6215C127.792 21.6061 127.105 21.4564 126.536 21.1722C125.976 20.8881 125.515 20.5118 125.154 20.0433C124.801 19.5672 124.532 19.0258 124.348 18.4191C124.171 17.8047 124.067 17.1596 124.037 16.4838C124.014 15.8004 124.044 15.1169 124.129 14.4334L124.555 11.5305C124.693 10.6166 124.916 9.72962 125.223 8.86951C125.53 8.00939 125.941 7.23759 126.456 6.5541C126.97 5.86294 127.608 5.32536 128.368 4.94138C129.136 4.54972 130.046 4.36541 131.098 4.38845C131.905 4.40381 132.588 4.55356 133.149 4.83771C133.717 5.11418 134.178 5.48664 134.531 5.95509C134.892 6.42355 135.161 6.96112 135.337 7.56781C135.522 8.1745 135.625 8.81575 135.648 9.49155C135.679 10.1674 135.652 10.847 135.568 11.5305ZM131.835 14.8711L132.4 11.0582C132.431 10.7817 132.461 10.4707 132.492 10.1251C132.53 9.77186 132.538 9.41476 132.515 9.05382C132.5 8.69287 132.438 8.35881 132.331 8.05163C132.231 7.73676 132.066 7.48334 131.835 7.29135C131.605 7.09168 131.29 6.98032 130.891 6.95728C130.338 6.93424 129.877 7.05328 129.508 7.31438C129.148 7.56781 128.856 7.90955 128.633 8.33961C128.418 8.76967 128.253 9.22661 128.138 9.71042C128.022 10.1942 127.93 10.6512 127.861 11.0812L127.308 14.8826C127.278 15.1591 127.243 15.474 127.205 15.8272C127.174 16.1805 127.166 16.5414 127.182 16.9101C127.205 17.2787 127.266 17.6204 127.366 17.9353C127.466 18.2502 127.631 18.5074 127.861 18.7071C128.092 18.9068 128.406 19.0181 128.806 19.0412C129.359 19.0719 129.82 18.9567 130.188 18.6956C130.557 18.4268 130.849 18.0774 131.064 17.6473C131.286 17.2096 131.455 16.7449 131.57 16.2535C131.686 15.7543 131.774 15.2935 131.835 14.8711ZM144.046 12.8898L143.585 15.4932H137.261L137.71 12.8898H144.046ZM155.761 4.58428L152.927 21.3911H149.691L151.937 8.47785L147.859 9.73346L148.331 6.99184L155.347 4.58428H155.761ZM169.965 16.7027C169.896 17.7855 169.569 18.6994 168.986 19.4443C168.402 20.1816 167.657 20.7345 166.751 21.1031C165.852 21.4717 164.892 21.6445 163.871 21.6215C162.926 21.6061 162.066 21.418 161.291 21.0571C160.523 20.6884 159.92 20.1547 159.482 19.4559C159.052 18.757 158.871 17.9007 158.941 16.887C158.994 16.1037 159.202 15.4125 159.563 14.8135C159.931 14.2145 160.404 13.7153 160.98 13.316C161.556 12.909 162.193 12.6056 162.892 12.406C163.591 12.2063 164.305 12.1141 165.034 12.1295C165.933 12.1449 166.766 12.333 167.534 12.694C168.31 13.0472 168.924 13.5617 169.377 14.2376C169.83 14.9057 170.026 15.7274 169.965 16.7027ZM166.762 16.4723C166.808 16.0576 166.774 15.6698 166.659 15.3089C166.543 14.9479 166.344 14.6561 166.06 14.4334C165.783 14.203 165.415 14.084 164.954 14.0763C164.455 14.0686 164.009 14.18 163.617 14.4103C163.226 14.6407 162.907 14.9556 162.661 15.3549C162.423 15.7543 162.277 16.192 162.224 16.6682C162.178 17.0905 162.212 17.4822 162.327 17.8431C162.45 18.1964 162.654 18.4805 162.938 18.6956C163.23 18.9106 163.606 19.0258 164.067 19.0412C164.566 19.0488 165.007 18.9413 165.391 18.7186C165.783 18.4882 166.094 18.1772 166.325 17.7855C166.563 17.3939 166.709 16.9561 166.762 16.4723ZM170.99 8.97318C170.921 9.94849 170.602 10.7702 170.034 11.4383C169.473 12.0988 168.767 12.6018 167.914 12.9474C167.069 13.2853 166.198 13.4427 165.299 13.4197C164.47 13.4043 163.69 13.2315 162.961 12.9013C162.239 12.5711 161.663 12.0911 161.233 11.4614C160.803 10.8316 160.611 10.0637 160.657 9.15749C160.718 8.12842 161.018 7.25679 161.556 6.54258C162.093 5.8207 162.784 5.27545 163.629 4.90683C164.474 4.53052 165.388 4.35389 166.371 4.37693C167.285 4.39229 168.099 4.58428 168.813 4.9529C169.535 5.32153 170.091 5.84758 170.483 6.53106C170.875 7.20687 171.044 8.02091 170.99 8.97318ZM167.707 9.12293C167.745 8.76199 167.718 8.41641 167.626 8.08619C167.542 7.75596 167.377 7.48718 167.131 7.27983C166.893 7.07248 166.57 6.9688 166.163 6.9688C165.718 6.95344 165.33 7.05712 165 7.27983C164.67 7.49486 164.408 7.78284 164.216 8.14378C164.025 8.50472 163.905 8.89254 163.859 9.30724C163.821 9.67587 163.844 10.0253 163.929 10.3555C164.021 10.6857 164.186 10.9622 164.424 11.1849C164.662 11.3999 164.988 11.5075 165.403 11.5075C165.856 11.5151 166.244 11.4076 166.566 11.1849C166.897 10.9622 167.158 10.6665 167.35 10.2979C167.542 9.92929 167.661 9.53763 167.707 9.12293ZM171.877 19.8475C171.869 19.3253 172.042 18.8952 172.395 18.5573C172.756 18.2194 173.194 18.0505 173.708 18.0505C174.2 18.0428 174.622 18.1964 174.976 18.5113C175.337 18.8184 175.521 19.2255 175.529 19.7323C175.536 20.2545 175.36 20.6846 174.999 21.0225C174.645 21.3604 174.212 21.5293 173.697 21.5293C173.205 21.537 172.779 21.3873 172.418 21.0801C172.065 20.7652 171.885 20.3544 171.877 19.8475ZM173.524 10.344C173.516 9.82178 173.689 9.39172 174.043 9.05382C174.403 8.71591 174.841 8.54696 175.356 8.54696C175.847 8.53928 176.27 8.69287 176.623 9.00774C176.984 9.31492 177.168 9.72194 177.176 10.2288C177.184 10.751 177.007 11.1811 176.646 11.519C176.293 11.8569 175.859 12.0258 175.344 12.0258C174.853 12.0335 174.427 11.8838 174.066 11.5766C173.712 11.2617 173.532 10.8508 173.524 10.344ZM190.538 11.5305L190.101 14.4219C189.962 15.3434 189.74 16.2381 189.432 17.1059C189.133 17.966 188.726 18.7416 188.211 19.4328C187.697 20.124 187.059 20.6692 186.299 21.0686C185.539 21.4602 184.629 21.6445 183.569 21.6215C182.763 21.6061 182.075 21.4564 181.507 21.1722C180.947 20.8881 180.486 20.5118 180.125 20.0433C179.772 19.5672 179.503 19.0258 179.318 18.4191C179.142 17.8047 179.038 17.1596 179.007 16.4838C178.984 15.8004 179.015 15.1169 179.1 14.4334L179.526 11.5305C179.664 10.6166 179.887 9.72962 180.194 8.86951C180.501 8.00939 180.912 7.23759 181.426 6.5541C181.941 5.86294 182.578 5.32536 183.339 4.94138C184.107 4.54972 185.017 4.36541 186.069 4.38845C186.875 4.40381 187.559 4.55356 188.119 4.83771C188.688 5.11418 189.148 5.48664 189.502 5.95509C189.863 6.42355 190.131 6.96112 190.308 7.56781C190.492 8.1745 190.596 8.81575 190.619 9.49155C190.65 10.1674 190.623 10.847 190.538 11.5305ZM186.806 14.8711L187.371 11.0582C187.401 10.7817 187.432 10.4707 187.463 10.1251C187.501 9.77186 187.509 9.41476 187.486 9.05382C187.47 8.69287 187.409 8.35881 187.301 8.05163C187.202 7.73676 187.036 7.48334 186.806 7.29135C186.576 7.09168 186.261 6.98032 185.861 6.95728C185.309 6.93424 184.848 7.05328 184.479 7.31438C184.118 7.56781 183.826 7.90955 183.604 8.33961C183.389 8.76967 183.224 9.22661 183.108 9.71042C182.993 10.1942 182.901 10.6512 182.832 11.0812L182.279 14.8826C182.248 15.1591 182.214 15.474 182.175 15.8272C182.145 16.1805 182.137 16.5414 182.152 16.9101C182.175 17.2787 182.237 17.6204 182.337 17.9353C182.436 18.2502 182.601 18.5074 182.832 18.7071C183.062 18.9068 183.377 19.0181 183.776 19.0412C184.329 19.0719 184.79 18.9567 185.159 18.6956C185.527 18.4268 185.819 18.0774 186.034 17.6473C186.257 17.2096 186.426 16.7449 186.541 16.2535C186.656 15.7543 186.745 15.2935 186.806 14.8711ZM203.671 11.5305L203.233 14.4219C203.095 15.3434 202.872 16.2381 202.565 17.1059C202.265 17.966 201.858 18.7416 201.344 19.4328C200.829 20.124 200.192 20.6692 199.431 21.0686C198.671 21.4602 197.761 21.6445 196.701 21.6215C195.895 21.6061 195.208 21.4564 194.639 21.1722C194.079 20.8881 193.618 20.5118 193.257 20.0433C192.904 19.5672 192.635 19.0258 192.451 18.4191C192.274 17.8047 192.17 17.1596 192.14 16.4838C192.117 15.8004 192.147 15.1169 192.232 14.4334L192.658 11.5305C192.796 10.6166 193.019 9.72962 193.326 8.86951C193.633 8.00939 194.044 7.23759 194.559 6.5541C195.073 5.86294 195.711 5.32536 196.471 4.94138C197.239 4.54972 198.149 4.36541 199.201 4.38845C200.007 4.40381 200.691 4.55356 201.251 4.83771C201.82 5.11418 202.28 5.48664 202.634 5.95509C202.995 6.42355 203.263 6.96112 203.44 7.56781C203.624 8.1745 203.728 8.81575 203.751 9.49155C203.782 10.1674 203.755 10.847 203.671 11.5305ZM199.938 14.8711L200.503 11.0582C200.533 10.7817 200.564 10.4707 200.595 10.1251C200.633 9.77186 200.641 9.41476 200.618 9.05382C200.602 8.69287 200.541 8.35881 200.434 8.05163C200.334 7.73676 200.169 7.48334 199.938 7.29135C199.708 7.09168 199.393 6.98032 198.994 6.95728C198.441 6.93424 197.98 7.05328 197.611 7.31438C197.25 7.56781 196.959 7.90955 196.736 8.33961C196.521 8.76967 196.356 9.22661 196.24 9.71042C196.125 10.1942 196.033 10.6512 195.964 11.0812L195.411 14.8826C195.38 15.1591 195.346 15.474 195.307 15.8272C195.277 16.1805 195.269 16.5414 195.284 16.9101C195.307 17.2787 195.369 17.6204 195.469 17.9353C195.569 18.2502 195.734 18.5074 195.964 18.7071C196.194 18.9068 196.509 19.0181 196.909 19.0412C197.462 19.0719 197.922 18.9567 198.291 18.6956C198.66 18.4268 198.951 18.0774 199.166 17.6473C199.389 17.2096 199.558 16.7449 199.673 16.2535C199.788 15.7543 199.877 15.2935 199.938 14.8711Z" fill="white"/>
</g>
<g filter="url(#filter1_d_210_266)">
<path d="M53.3964 18.3847C53.4496 18.0716 53.423 17.8087 53.3167 17.596C53.2163 17.3774 53.0627 17.1943 52.8559 17.0466C52.655 16.893 52.4276 16.7631 52.1736 16.6567C51.9255 16.5504 51.6774 16.4529 51.4293 16.3643C50.9744 16.1871 50.5254 15.9862 50.0824 15.7618C49.6452 15.5373 49.2465 15.2715 48.8861 14.9643C48.5258 14.6512 48.2452 14.2879 48.0443 13.8744C47.8435 13.4549 47.7608 12.9646 47.7962 12.4034C47.8376 11.7654 48.0177 11.2131 48.3367 10.7464C48.6557 10.2797 49.0604 9.89868 49.5507 9.60331C50.0469 9.30203 50.5845 9.08051 51.1634 8.93873C51.7483 8.79695 52.3213 8.73197 52.8825 8.74378C53.6859 8.7556 54.4007 8.92396 55.0269 9.24887C55.6531 9.56787 56.1434 10.0227 56.4978 10.6135C56.8582 11.1983 57.0265 11.9013 57.0029 12.7224H54.4332C54.4568 12.3325 54.4066 11.9958 54.2825 11.7122C54.1644 11.4228 53.9724 11.2013 53.7066 11.0477C53.4466 10.8882 53.1129 10.8025 52.7053 10.7907C52.3567 10.7848 52.0141 10.8409 51.6774 10.9591C51.3466 11.0713 51.0601 11.2485 50.8178 11.4907C50.5816 11.727 50.4339 12.0342 50.3748 12.4123C50.3275 12.6899 50.3659 12.9292 50.49 13.13C50.62 13.3309 50.7942 13.5022 51.0128 13.644C51.2373 13.7857 51.4736 13.9068 51.7217 14.0073C51.9757 14.1018 52.2031 14.1874 52.404 14.2642C52.8825 14.4356 53.3433 14.6394 53.7863 14.8757C54.2353 15.112 54.6311 15.3926 54.9737 15.7175C55.3163 16.0365 55.5792 16.4145 55.7623 16.8517C55.9455 17.2829 56.0193 17.7851 55.9839 18.3581C55.9307 19.0138 55.7535 19.575 55.4522 20.0417C55.1509 20.5025 54.761 20.8805 54.2825 21.1759C53.804 21.4654 53.2812 21.678 52.7141 21.8139C52.147 21.9498 51.571 22.0147 50.9862 22.0088C50.3482 21.997 49.7486 21.8966 49.1874 21.7076C48.6262 21.5185 48.1359 21.2468 47.7165 20.8923C47.297 20.532 46.9721 20.0919 46.7417 19.572C46.5173 19.0463 46.4139 18.4467 46.4316 17.7732L49.0279 17.7821C49.0043 18.1424 49.0309 18.4585 49.1077 18.7302C49.1904 18.9961 49.3203 19.2205 49.4975 19.4037C49.6807 19.5868 49.9052 19.7256 50.171 19.8201C50.4427 19.9088 50.7588 19.956 51.1191 19.9619C51.4677 19.9619 51.8044 19.9088 52.1293 19.8024C52.4542 19.6961 52.7318 19.5277 52.9622 19.2973C53.1926 19.061 53.3374 18.7568 53.3964 18.3847ZM62.3993 19.6606L63.0727 15.363C63.1023 15.1031 63.0905 14.8609 63.0373 14.6364C62.9841 14.4119 62.8748 14.2347 62.7094 14.1047C62.5499 13.9689 62.3225 13.895 62.0271 13.8832C61.7613 13.8773 61.522 13.9246 61.3094 14.025C61.1026 14.1195 60.9313 14.2583 60.7954 14.4415C60.6596 14.6187 60.565 14.8314 60.5119 15.0795L58.0131 15.0972C58.0426 14.5655 58.1903 14.1077 58.4561 13.7237C58.7278 13.3338 59.0705 13.0148 59.484 12.7667C59.8975 12.5186 60.3465 12.3355 60.8309 12.2173C61.3212 12.0992 61.7997 12.046 62.2664 12.0578C62.9339 12.0696 63.5276 12.2085 64.0475 12.4743C64.5732 12.7401 64.9749 13.1212 65.2526 13.6174C65.5361 14.1077 65.6425 14.7043 65.5716 15.4073L64.907 19.5189C64.8538 19.8615 64.8125 20.2219 64.7829 20.5999C64.7534 20.9721 64.8066 21.3265 64.9424 21.6633L64.9247 21.8228L62.479 21.8316C62.3668 21.4831 62.3107 21.1257 62.3107 20.7594C62.3166 20.3873 62.3461 20.021 62.3993 19.6606ZM63.3563 15.9833L63.117 17.4277L61.8499 17.4188C61.5959 17.4247 61.3419 17.4601 61.0879 17.5251C60.8397 17.5842 60.6094 17.6787 60.3967 17.8087C60.184 17.9327 60.0068 18.0952 59.865 18.296C59.7292 18.4969 59.6435 18.742 59.6081 19.0315C59.5785 19.2383 59.5992 19.4244 59.6701 19.5898C59.741 19.7493 59.8503 19.8763 59.9979 19.9708C60.1515 20.0653 60.3347 20.1155 60.5473 20.1214C60.8486 20.1273 61.144 20.0712 61.4334 19.9531C61.7229 19.829 61.974 19.6547 62.1866 19.4303C62.3993 19.2058 62.547 18.9459 62.6297 18.6505L63.1613 19.7581C63.0196 20.0889 62.8394 20.3932 62.6208 20.6708C62.4082 20.9485 62.163 21.1907 61.8854 21.3974C61.6077 21.5983 61.3035 21.7519 60.9727 21.8582C60.6418 21.9704 60.2874 22.0236 59.9093 22.0177C59.3836 22.0059 58.8992 21.8818 58.4561 21.6455C58.019 21.4033 57.6704 21.0755 57.4105 20.662C57.1565 20.2425 57.0413 19.7552 57.0649 19.1999C57.0885 18.5737 57.2451 18.0538 57.5346 17.6403C57.824 17.2209 58.1962 16.8901 58.6511 16.6479C59.1118 16.4057 59.611 16.2344 60.1486 16.1339C60.6921 16.0276 61.2296 15.9744 61.7613 15.9744L63.3563 15.9833ZM72.6427 12.2351L72.3237 14.0427H66.8919L67.2109 12.2351H72.6427ZM68.9654 9.86914H71.4553L69.8958 18.9518C69.8721 19.1585 69.8721 19.3357 69.8958 19.4834C69.9253 19.6252 69.9932 19.7345 70.0996 19.8113C70.2059 19.8881 70.3713 19.9324 70.5958 19.9442C70.7199 19.9501 70.8439 19.9472 70.968 19.9353C71.092 19.9176 71.219 19.8999 71.349 19.8822L71.1718 21.7873C70.9355 21.8582 70.6962 21.9084 70.454 21.9379C70.2177 21.9734 69.9755 21.9911 69.7274 21.9911C69.1603 21.9793 68.6936 21.8552 68.3274 21.6189C67.967 21.3827 67.7071 21.0577 67.5476 20.6442C67.394 20.2248 67.3438 19.7404 67.3969 19.191L68.9654 9.86914Z" fill="white"/>
</g>
<defs>
<filter id="filter0_d_210_266" x="0.853638" y="1.10265" width="206.119" height="25.8946" filterUnits="userSpaceOnUse" color-interpolation-filters="sRGB">
<feFlood flood-opacity="0" result="BackgroundImageFix"/>
<feColorMatrix in="SourceAlpha" type="matrix" values="0 0 0 0 0 0 0 0 0 0 0 0 0 0 0 0 0 0 127 0" result="hardAlpha"/>
<feOffset dy="0.907376"/>
<feGaussianBlur stdDeviation="1.58791"/>
<feComposite in2="hardAlpha" operator="out"/>
<feColorMatrix type="matrix" values="0 0 0 0 0 0 0 0 0 0.048 0 0 0 0 0.3 0 0 0 1 0"/>
<feBlend mode="normal" in2="BackgroundImageFix" result="effect1_dropShadow_210_266"/>
<feBlend mode="normal" in="SourceGraphic" in2="effect1_dropShadow_210_266" result="shape"/>
</filter>
<filter id="filter1_d_210_266" x="43.2292" y="6.45764" width="32.5893" height="19.6519" filterUnits="userSpaceOnUse" color-interpolation-filters="sRGB">
<feFlood flood-opacity="0" result="BackgroundImageFix"/>
<feColorMatrix in="SourceAlpha" type="matrix" values="0 0 0 0 0 0 0 0 0 0 0 0 0 0 0 0 0 0 127 0" result="hardAlpha"/>
<feOffset dy="0.907376"/>
<feGaussianBlur stdDeviation="1.58791"/>
<feComposite in2="hardAlpha" operator="out"/>
<feColorMatrix type="matrix" values="0 0 0 0 0 0 0 0 0 0.048 0 0 0 0 0.3 0 0 0 1 0"/>
<feBlend mode="normal" in2="BackgroundImageFix" result="effect1_dropShadow_210_266"/>
<feBlend mode="normal" in="SourceGraphic" in2="effect1_dropShadow_210_266" result="shape"/>
</filter>
</defs>
</svg>
