<svg width="302" height="146" viewBox="0 0 302 146" fill="none" xmlns="http://www.w3.org/2000/svg">
<path d="M215.484 145.089V83.2915H224.082V145.089H215.484Z" fill="white"/>
<path d="M8.82601 40.4178V0.517578H0V62.5936H8.88236V40.4178H8.82601Z" fill="#00A8F0"/>
<path d="M26.473 0.517578H11.3873V8.88738H26.473V0.517578Z" fill="#00A8F0"/>
<path d="M24.2088 27.7197H11.3873V36.0895H24.2088V27.7197Z" fill="#00A8F0"/>
<path d="M54.5132 34.2584C57.3562 32.689 59.3488 30.6273 60.4758 28.0682C61.6078 25.509 62.1713 22.4011 62.1713 18.7393C62.1713 6.58979 56.9464 0.517578 46.4966 0.517578H43.6638V8.88738H45.7128C48.7914 8.88738 50.8814 9.70282 51.9827 11.3286C52.5052 12.2004 52.8535 13.2313 53.0277 14.4262C53.2019 15.616 53.289 16.9956 53.289 18.5701C53.289 20.1446 53.2019 21.519 53.0277 22.714C52.8535 23.9038 52.536 24.909 52.0698 25.7193C51.5473 26.5347 50.8199 27.1604 49.8928 27.5964C48.9656 28.0323 47.7157 28.2528 46.1482 28.2528H43.6638V36.0995H46.4095L54.6823 62.6039H64.0871L54.5081 34.2686L54.5132 34.2584Z" fill="white"/>
<path d="M41.1078 28.2426H41.1027V8.88738H41.1078V0.517578H32.2203V62.5936H41.1027V36.0893H41.1078V28.2426Z" fill="white"/>
<path d="M93.526 27.1089H80.0283V35.4787H93.526V27.1089Z" fill="white"/>
<path d="M77.9793 0.517578H69.3172V62.5936H77.9793V0.517578Z" fill="white"/>
<path d="M95.7901 53.7012H80.0283V62.5941H95.7901V53.7012Z" fill="white"/>
<path d="M95.7901 0.517578H80.0283V8.88738H95.7901V0.517578Z" fill="white"/>
<path d="M284.415 53.7007H284.404V35.479H284.415V27.1091H284.404V8.88738H284.415V0.517578H275.522V62.5936H284.415V53.7007Z" fill="white"/>
<path d="M299.736 27.1089H286.464V35.4787H299.736V27.1089Z" fill="white"/>
<path d="M302 0.517578H286.464V8.88738H302V0.517578Z" fill="white"/>
<path d="M302 53.7012H286.464V62.5941H302V53.7012Z" fill="white"/>
<path d="M110.251 0.517578H101.538V62.5936H110.251V0.517578Z" fill="white"/>
<path d="M125.746 27.1089H112.3V35.4787H125.746V27.1089Z" fill="white"/>
<path d="M128.01 53.7012H112.3V62.5941H128.01V53.7012Z" fill="white"/>
<path d="M128.01 0.517578H112.3V8.88738H128.01V0.517578Z" fill="white"/>
<path d="M259.412 47.9468C259.412 49.1673 259.238 50.1828 258.889 50.9982C258.541 51.8137 258.106 52.4496 257.583 52.9163C257.004 53.3779 256.385 53.7112 255.724 53.9164V63.035C257.122 62.8811 258.454 62.517 259.714 61.9426C261.425 61.1579 262.921 60.0963 264.196 58.7577C265.472 57.4192 266.476 55.896 267.203 54.1831C267.931 52.4701 268.289 50.6495 268.289 48.7365V44.9004H259.407V47.9519L259.412 47.9468Z" fill="white"/>
<path d="M253.68 54.214C251.738 54.1832 250.381 53.578 249.618 52.3882C248.834 51.1676 248.445 49.6547 248.445 47.8546V16.1242C248.445 14.0317 248.808 12.3034 249.531 10.9341C250.227 9.62117 251.616 8.94933 253.68 8.89292V0C251.662 0.0358999 249.818 0.394899 248.137 1.08213C246.365 1.81038 244.844 2.81045 243.568 4.09259C242.293 5.3696 241.304 6.88252 240.607 8.62623C239.911 10.3699 239.562 12.2573 239.562 14.2933V48.47C239.562 51.3163 240.013 53.6601 240.91 55.491C241.811 57.3219 242.953 58.8194 244.347 59.9785C245.74 61.1427 247.308 61.953 249.049 62.4197C250.617 62.8351 252.158 63.0556 253.675 63.1018V54.2191L253.68 54.214Z" fill="white"/>
<path d="M267.208 8.84136C266.481 7.01047 265.482 5.42575 264.201 4.09232C261.958 1.74344 259.13 0.410016 255.724 0.0766602V9.17472C256.589 9.47731 257.327 10.0209 257.931 10.8005C258.92 12.0775 259.412 13.5904 259.412 15.3341V18.2984H268.294V14.811C268.294 12.6621 267.931 10.6723 267.208 8.84136Z" fill="white"/>
<path d="M94.7964 136.695C93.5311 136.562 92.4503 136.054 91.5641 135.167C90.5191 134.12 89.9966 132.495 89.9966 130.284V83.0298H81.1143V131.156C81.1143 133.192 81.4933 135.064 82.2463 136.782C82.9993 138.495 84.0443 140.023 85.3813 141.357C86.7182 142.695 88.2396 143.742 89.9556 144.496C91.4668 145.162 93.0803 145.537 94.8015 145.614V136.7L94.7964 136.695Z" fill="white"/>
<path d="M100.969 83.0305V130.285C100.969 132.495 100.446 134.121 99.4015 135.167C98.6741 135.896 97.8238 136.362 96.8454 136.583V145.563C98.3155 145.43 99.7191 145.071 101.056 144.491C102.798 143.737 104.334 142.691 105.671 141.352C107.008 140.014 108.038 138.491 108.765 136.778C109.493 135.065 109.851 133.188 109.851 131.152V83.0254H100.969V83.0305Z" fill="white"/>
<path d="M160.231 53.7012H145.084V62.5941H160.231V53.7012Z" fill="white"/>
<path d="M142.522 0.517578H133.758V62.5936H142.522V0.517578Z" fill="white"/>
<path d="M232.073 55.188V0.517578H223.191V30.7556L232.073 55.188Z" fill="white"/>
<path d="M223.068 37.9202H223.017L209.606 0.517578H201.072V0.522707L210.067 25.2783H210.129L223.713 62.5936H232.037L223.068 37.9202Z" fill="white"/>
<path d="M201.072 8.021V62.594H209.954V32.4534L201.072 8.021Z" fill="white"/>
<path d="M171.93 56.8865L175.035 40.8854L178.139 24.8278L174.722 5.42139L161.972 62.5946H170.855L171.966 56.8967L171.93 56.8865Z" fill="white"/>
<path d="M183.22 0.517578H176.459L180.07 21.0216L183.917 40.8845H177.642L176.018 49.2543H185.572L188.184 62.5936H197.066L183.22 0.517578Z" fill="white"/>
<path d="M58.4269 136.706C56.5521 136.572 55.1844 135.931 54.3392 134.772C53.3813 133.464 52.9049 131.998 52.9049 130.372V127.582H44.0225V130.895C44.0225 132.988 44.417 134.921 45.1956 136.695C45.9793 138.47 47.0397 140.024 48.3766 141.357C49.7136 142.696 51.3067 143.742 53.1661 144.496C54.8053 145.163 56.5623 145.537 58.432 145.614V136.711L58.4269 136.706Z" fill="#00A8F0"/>
<path d="M70.4955 86.9538C69.1585 85.6152 67.5757 84.5434 65.7469 83.7279C64.1385 83.0099 62.3815 82.6099 60.4759 82.5278V91.4823C62.151 91.6977 63.3906 92.4054 64.1795 93.626C65.1374 95.1082 65.6137 96.8673 65.6137 98.9033V100.909H74.4961V96.5493C74.4961 92.9439 73.1591 89.7488 70.4903 86.9589L70.4955 86.9538Z" fill="#00A8F0"/>
<path d="M72.8467 116.597C72.15 115.258 71.1921 114.084 69.973 113.068C68.7538 112.053 67.1556 111.166 65.1835 110.407L58.3911 107.704C57.2283 107.237 56.3165 106.776 55.6506 106.309C54.9846 105.842 54.4775 105.293 54.1292 104.652C53.7809 104.011 53.5606 103.288 53.4735 102.473C53.3864 101.657 53.3403 100.642 53.3403 99.4213C53.3403 98.3751 53.4274 97.3699 53.6016 96.416C53.7757 95.4569 54.0933 94.6004 54.5595 93.8414C55.0205 93.1439 55.6352 92.5644 56.3882 92.0977C56.9414 91.7541 57.6227 91.5438 58.4321 91.4515V82.5483C56.3523 82.6714 54.5236 83.1073 52.9459 83.8561C51.0608 84.7587 49.5087 85.964 48.2896 87.4718C47.0141 88.9847 46.0511 90.7848 45.4159 92.8773C44.7756 94.9697 44.458 97.1801 44.458 99.5034C44.458 103.396 45.1137 106.637 46.4148 109.227C47.721 111.812 50.2925 113.894 54.1241 115.463L60.481 118.079C61.5824 118.546 62.4686 118.982 63.1396 119.387C63.8055 119.792 64.3434 120.315 64.7481 120.956C65.0964 121.597 65.3269 122.438 65.4447 123.484C65.5574 124.531 65.6189 125.869 65.6189 127.495C65.6189 128.89 65.5728 130.157 65.4857 131.29C65.3986 132.424 65.122 133.398 64.6559 134.208C64.1897 135.024 63.5392 135.649 62.6991 136.085C62.1202 136.388 61.3775 136.578 60.4759 136.675V145.594C62.7554 145.471 64.7327 145.019 66.3975 144.235C68.3696 143.306 69.9679 142.024 71.187 140.398C72.3498 138.829 73.1899 136.926 73.7124 134.69C74.2349 132.454 74.4961 130.023 74.4961 127.408C74.4961 125.141 74.3783 123.12 74.1478 121.346C73.9121 119.571 73.4819 117.992 72.8416 116.597H72.8467Z" fill="#00A8F0"/>
<path d="M118.211 87.769V145.106H127.094V115.135L118.211 87.769Z" fill="white"/>
<path d="M157.065 83.0303H149.648L138.327 115.899H138.153L126.745 83.0303H119.369L127.263 107.355H127.268L135.976 134.034H140.417L146.308 116.166L157.065 83.0303Z" fill="white"/>
<path d="M149.387 114.977V145.107H158.269V87.6055L149.387 114.977Z" fill="white"/>
<path d="M205.493 83.0303H198.065L186.745 115.899H186.57L175.163 83.0303H167.812L178.938 117.315L184.393 134.034H188.835L195.535 113.709L205.493 83.0303Z" fill="white"/>
<path d="M166.629 87.6875V145.107H175.511V115.059L166.629 87.6875Z" fill="white"/>
<path d="M197.804 115.012V145.107H206.686V87.6465L197.804 115.012Z" fill="white"/>
<path d="M238.645 91.4001H247.528H257.803V83.0303H228.37V91.4001H238.645Z" fill="white"/>
<path d="M247.528 93.4517H238.645V145.106H247.528V93.4517Z" fill="white"/>
</svg>
