<svg width="305" height="54" viewBox="0 0 305 54" fill="none" xmlns="http://www.w3.org/2000/svg">
<rect x="1.18333" y="1.18333" width="302.633" height="51.6333" rx="25.8167" stroke="white" stroke-width="1.63333"/>
<path d="M57.116 27.586V33.064H52.21V26.42H58.964V18.434H56.214V23.868H52.21V16.586H49.526V23.868H45.742V18.434H43.146V26.42H49.526V33.064H44.928V27.586H42.266V36.914H44.928V35.638H57.116V36.892H59.844V27.586H57.116ZM72.054 30.6H73.99C74.408 31.568 74.936 32.426 75.53 33.174C74.364 33.35 73.176 33.504 72.054 33.658V30.6ZM73.154 26.904H76.432V28.4H73.154V26.904ZM73.154 23.274H76.432V24.726H73.154V23.274ZM67.544 19.512H79.182V21.052H67.544V19.512ZM79.908 30.6C79.27 31.084 78.434 31.634 77.664 32.096C77.202 31.634 76.806 31.15 76.454 30.6H79.908ZM80.678 30.6H82.988V28.4H78.852V26.904H82.02V24.726H78.852V23.274H81.844V17.312H64.904V23.802C64.904 27.3 64.728 32.25 62.55 35.638C63.21 35.88 64.354 36.562 64.882 36.98C67.192 33.372 67.544 27.652 67.544 23.802V23.274H70.756V24.726H67.984V26.904H70.756V28.4H67.39V30.6H69.656V33.966C68.842 34.076 68.072 34.164 67.412 34.23L67.764 36.606C70.052 36.254 73.11 35.836 75.97 35.374L75.882 33.592C77.312 35.198 79.204 36.32 81.712 36.936C82.042 36.254 82.724 35.286 83.252 34.78C81.756 34.494 80.458 34.032 79.38 33.394C80.304 32.91 81.338 32.294 82.24 31.656L80.678 30.6ZM104.79 25.76V23.472H94.384C94.692 22.878 94.978 22.306 95.22 21.69L94.01 21.36C94.648 21.184 95.264 20.986 95.858 20.788C98.08 21.58 100.06 22.372 101.446 23.054L103.448 21.25C102.282 20.7 100.808 20.128 99.18 19.556C100.456 19.006 101.666 18.39 102.7 17.752L100.522 16.256C99.268 17.07 97.64 17.818 95.792 18.434C93.438 17.708 91.018 17.048 88.994 16.564L87.168 18.082C88.708 18.478 90.402 18.984 92.118 19.534C90.028 20.062 87.806 20.458 85.694 20.766C86.244 21.272 87.058 22.372 87.476 22.944C88.994 22.636 90.6 22.306 92.206 21.866C92.008 22.394 91.744 22.944 91.458 23.472H85.232V25.76H89.962C88.532 27.586 86.728 29.214 84.572 30.314C85.122 30.798 85.914 31.722 86.31 32.272C87.19 31.81 87.982 31.26 88.752 30.622V35.792H91.348V30.204H94.472V36.914H97.002V30.204H100.456V33.108C100.456 33.35 100.346 33.438 100.06 33.438C99.774 33.438 98.762 33.438 97.882 33.394C98.212 34.032 98.564 34.934 98.674 35.638C100.148 35.638 101.226 35.616 102.04 35.264C102.854 34.89 103.074 34.296 103.074 33.13V27.916H97.002V26.112H94.472V27.916H91.502C92.074 27.212 92.602 26.508 93.086 25.76H104.79ZM124.194 18.896L124.15 19.842H120.696C120.718 19.534 120.74 19.226 120.762 18.896H124.194ZM120.366 22.504C120.432 22.174 120.476 21.844 120.52 21.514H124.084C124.062 21.866 124.04 22.196 124.018 22.504H120.366ZM108.354 23.472C108.354 25.76 108.992 26.552 111.412 26.552H114.382C115.108 26.552 115.922 26.53 116.34 26.398L116.318 26.2C116.736 26.618 117.198 27.19 117.396 27.608C118.606 26.728 119.376 25.584 119.882 24.198H123.82C123.754 24.66 123.666 24.924 123.556 25.056C123.402 25.254 123.204 25.32 122.94 25.32C122.61 25.32 122.016 25.298 121.312 25.232C121.62 25.76 121.862 26.64 121.884 27.212C122.786 27.234 123.644 27.234 124.172 27.146C124.766 27.058 125.228 26.882 125.646 26.332C126.174 25.628 126.394 23.56 126.592 17.972C126.614 17.708 126.614 17.048 126.614 17.048H118.496C118.408 20.986 118.276 23.846 116.252 25.628C116.186 25.144 116.142 24.616 116.098 24.22C115.702 24.33 114.866 24.374 114.316 24.374H111.434C110.884 24.374 110.752 24.132 110.752 23.516V20.656H117.286V18.456H113.282V16.388H110.862V18.456H106.814V20.656H108.354V23.472ZM118.276 34.384V33.262H124.524V31.172H118.276V30.072H125.58V27.938H108.574V30.072H115.636V31.172H109.476V33.262H115.636V34.384H107.21V36.54H126.768V34.384H118.276ZM137.438 16.278C135.788 19.072 132.246 22.57 128.44 24.528C129.012 25.078 129.76 26.046 130.09 26.64C133.72 24.594 137.108 21.536 138.89 18.852C140.782 21.558 144.456 24.726 147.866 26.618C148.372 25.804 148.966 24.946 149.626 24.264C146.106 22.746 142.498 19.754 140.122 16.278H137.438ZM140.496 29.544H146.392V27.234H140.496V22.526H137.746V33.944H134.622V26.31H132.048V33.944H129.65V36.32H148.372V33.944H140.496V29.544ZM163.706 22.086C163.464 22.68 163.2 23.318 162.936 23.846H158.822L159.196 23.78C159.042 23.318 158.756 22.658 158.448 22.086H163.706ZM170.812 31.898V29.742H162.254V28.774H168.854V26.882H162.254V25.892H169.888V23.846H165.576C165.906 23.318 166.258 22.724 166.61 22.086H170.746V19.952H167.886C168.392 19.182 168.986 18.192 169.602 17.18L166.852 16.52C166.544 17.488 165.994 18.808 165.466 19.71L166.258 19.952H164.3V16.366H161.836V19.952H160.208V16.366H157.766V19.952H155.764L156.842 19.556C156.534 18.698 155.808 17.4 155.17 16.454L152.926 17.224C153.41 18.06 153.982 19.116 154.29 19.952H151.342V22.086H155.94L155.676 22.13C155.962 22.636 156.248 23.296 156.424 23.846H152.244V25.892H159.68V26.882H153.344V28.774H159.68V29.742H151.276V31.898H157.59C155.698 33.042 153.102 33.966 150.638 34.472C151.188 35 151.936 36.012 152.31 36.65C154.928 35.968 157.634 34.692 159.68 33.086V36.914H162.254V32.954C164.278 34.67 166.94 35.99 169.646 36.672C170.042 35.968 170.812 34.868 171.406 34.296C168.854 33.9 166.302 33.042 164.432 31.898H170.812ZM182.428 32.14C182.428 31.304 183.264 30.776 184.518 30.776C185.112 30.776 185.706 30.864 186.278 31.018C186.278 31.172 186.278 31.304 186.278 31.414C186.278 32.712 185.816 33.416 184.474 33.416C183.308 33.416 182.428 33.042 182.428 32.14ZM188.962 17.774H185.816C185.904 18.214 185.97 18.896 185.97 19.226C185.97 19.688 185.992 20.59 185.992 21.668C185.486 21.69 184.958 21.69 184.452 21.69C183.132 21.69 181.856 21.624 180.602 21.492V24.11C181.9 24.198 183.154 24.242 184.452 24.242C184.958 24.242 185.486 24.242 186.014 24.22C186.036 25.782 186.124 27.388 186.168 28.752C185.728 28.686 185.244 28.664 184.738 28.664C181.746 28.664 179.854 30.204 179.854 32.426C179.854 34.736 181.746 36.012 184.782 36.012C187.752 36.012 188.94 34.516 189.072 32.404C189.952 32.998 190.832 33.768 191.756 34.626L193.274 32.316C192.218 31.348 190.832 30.226 189.006 29.478C188.918 27.982 188.808 26.222 188.764 24.088C189.974 24 191.118 23.868 192.174 23.714V20.964C191.118 21.184 189.974 21.36 188.764 21.47C188.786 20.502 188.808 19.688 188.83 19.204C188.852 18.72 188.896 18.192 188.962 17.774ZM178.226 18.016L175.19 17.752C175.168 18.456 175.058 19.292 174.97 19.908C174.728 21.602 174.068 25.76 174.068 29.082C174.068 32.074 174.486 34.582 174.948 36.122L177.434 35.924C177.412 35.616 177.39 35.242 177.39 35.022C177.39 34.78 177.434 34.296 177.5 33.988C177.764 32.8 178.468 30.556 179.084 28.752L177.742 27.652C177.412 28.4 177.038 29.148 176.752 29.918C176.686 29.478 176.664 28.928 176.664 28.488C176.664 26.288 177.39 21.448 177.72 19.974C177.786 19.578 178.05 18.456 178.226 18.016ZM198.796 19.006V21.91C200.578 22.064 202.492 22.152 204.802 22.152C206.892 22.152 209.62 22.02 211.16 21.888V18.962C209.466 19.138 206.958 19.27 204.78 19.27C202.47 19.27 200.424 19.182 198.796 19.006ZM200.644 28.334L197.762 28.07C197.586 28.884 197.322 29.962 197.322 31.238C197.322 34.252 199.852 35.946 204.89 35.946C207.97 35.946 210.61 35.66 212.524 35.198L212.502 32.096C210.566 32.646 207.75 32.976 204.78 32.976C201.612 32.976 200.27 31.964 200.27 30.556C200.27 29.808 200.424 29.126 200.644 28.334ZM225.966 17.466L222.842 17.334C222.886 18.06 222.864 18.61 222.732 19.556C222.688 19.82 222.644 20.128 222.6 20.458C221.258 20.436 219.608 20.26 218.288 20.04V22.768C219.41 22.878 220.708 22.944 222.094 22.966C221.522 25.386 220.642 28.312 219.586 30.358L222.182 31.282C222.402 30.908 222.556 30.622 222.798 30.314C224.118 28.642 226.362 27.74 228.892 27.74C231.048 27.74 232.17 28.84 232.17 30.16C232.17 33.394 227.308 33.988 222.49 33.196L223.26 36.034C230.366 36.804 235.14 35.022 235.14 30.072C235.14 27.256 232.786 25.364 229.222 25.364C227.264 25.364 225.548 25.76 223.766 26.75C224.096 25.672 224.448 24.264 224.756 22.922C227.704 22.768 231.202 22.35 233.49 21.976L233.446 19.358C230.784 19.93 227.814 20.26 225.306 20.392C225.35 20.15 225.394 19.908 225.438 19.71C225.592 18.984 225.724 18.236 225.966 17.466ZM245.348 17.29L244.644 19.93C246.36 20.37 251.266 21.404 253.488 21.69L254.148 19.006C252.234 18.786 247.438 17.95 245.348 17.29ZM245.48 21.712L242.532 21.294C242.378 24.022 241.872 28.334 241.432 30.49L243.962 31.128C244.16 30.688 244.38 30.336 244.776 29.852C246.162 28.18 248.406 27.256 250.892 27.256C252.806 27.256 254.17 28.312 254.17 29.742C254.17 32.536 250.672 34.142 244.072 33.24L244.908 36.122C254.06 36.892 257.228 33.812 257.228 29.808C257.228 27.146 254.984 24.77 251.134 24.77C248.824 24.77 246.646 25.408 244.644 26.86C244.798 25.606 245.194 22.922 245.48 21.712Z" fill="white"/>
</svg>
